<?xml version="1.0" encoding="utf-8"?>
<!-- Generator: Adobe Illustrator 23.0.2, SVG Export Plug-In . SVG Version: 6.00 Build 0)  -->
<svg version="1.1" id="Layer_1" xmlns="http://www.w3.org/2000/svg" xmlns:xlink="http://www.w3.org/1999/xlink" x="0px" y="0px"
	 viewBox="0 0 1520.5 545.9" style="enable-background:new 0 0 1520.5 545.9;" xml:space="preserve">
<style type="text/css">
	.st0{display:none;opacity:0.2;}
	.st1{display:inline;}
	.st2{fill:#FFFFFF;}
	.st3{display:none;fill:url(#SVGID_1_);}
	.st4{fill:#BAAD9C;}
	.st5{fill:#C41A23;}
	.st6{fill:#ED2424;}
	.st7{display:none;fill:#ED2424;}
	.st8{display:none;fill:#FFFFFF;}
	.st9{font-family:'MyriadPro-Bold';}
	.st10{font-size:300px;}
</style>
<g class="st0">
	
		<image style="display:inline;overflow:visible;" width="172" height="521" xlink:href="A755742C.png"  transform="matrix(1.2448 0 0 1.2448 -1325.3448 1095.8563)">
	</image>
	<g class="st1">
		
			<rect x="-1214.4" y="1100.8" transform="matrix(0.9636 -0.2673 0.2673 0.9636 -422.665 -272.0854)" class="st2" width="7.6" height="630.8"/>
	</g>
</g>
<radialGradient id="SVGID_1_" cx="759.7269" cy="278.9623" r="1125.4546" gradientUnits="userSpaceOnUse">
	<stop  offset="0" style="stop-color:#CBCBCB"/>
	<stop  offset="1" style="stop-color:#ADB6BE"/>
</radialGradient>
<rect x="-663" y="-434.5" class="st3" width="2845.5" height="1427"/>
<g>
	<g>
		<g>
			<path d="M1506.7,491.8c-1-0.3-2-0.8-3-0.8c-5.3,0-10.6,0.3-15.9,0.3c-5.4,0-10.8-0.3-16.3-0.4c-36.9,0-73.8,0-110.7-0.1
				c-26.9,0-53.9,0-80.8-0.1c-19.7-0.1-39.3-0.4-58.9-0.6c-5.1,0-5.3,0.2-5.3,5.3c0,4.8,0.1,9.7,0,14.5c0,2.7,1.2,3.9,3.8,3.7
				c6.7-0.6,13.4-1.2,20-1.7c4.6-0.4,9.2-0.9,13.9-1.2c18.7-1.1,37.4-2.1,56.1-3.3c11-0.7,21.9-1.7,32.9-2.5
				c9.8-0.7,19.5-1.5,29.3-2.1c17-1.1,34-2.1,50.9-3.3c24-1.6,47.9-3.3,71.9-5c4-0.3,8-1,12-1.5
				C1506.7,492.5,1506.7,492.1,1506.7,491.8z"/>
		</g>
		<g>
			<path d="M13.7,491.8c1-0.3,2-0.8,3-0.8c5.3,0,10.6,0.3,15.9,0.3c5.4,0,10.8-0.3,16.3-0.4c36.9,0,73.8,0,110.7-0.1
				c26.9,0,53.9,0,80.8-0.1c19.7-0.1,39.3-0.4,58.9-0.6c5.1,0,5.3,0.2,5.3,5.3c0,4.8-0.1,9.7,0,14.5c0,2.7-1.2,3.9-3.8,3.7
				c-6.7-0.6-13.4-1.2-20-1.7c-4.6-0.4-9.2-0.9-13.9-1.2c-18.7-1.1-37.4-2.1-56.1-3.3c-11-0.7-21.9-1.7-32.9-2.5
				c-9.8-0.7-19.5-1.5-29.3-2.1c-17-1.1-34-2.1-50.9-3.3c-24-1.6-47.9-3.3-71.9-5c-4-0.3-8-1-12-1.5
				C13.8,492.5,13.8,492.1,13.7,491.8z"/>
		</g>
		<g>
			<path d="M355.5,506.6c0,4.5-2.7,9-7.5,12.6c-4.8,3.6-11.6,6.4-19.7,8l-2.3,0.5l-4.5-10.9l3.6-0.6c10.2-1.8,16.3-5.4,16.3-7.8
				c0-1.6-1-2.8-7-5.5c-7-3.2-13.8-6.9-13.8-13.9c0-9.4,13.5-17,26.3-19.5l2.5-0.5l3.6,11.2l-3.4,0.5c-6.8,0.9-15,4.3-15,7.1
				c0,1.4,4.4,3.5,6.3,4.4c0.6,0.3,1.1,0.5,1.6,0.8l0.9,0.4C349.5,496.3,355.5,499.3,355.5,506.6z"/>
		</g>
		<g>
			<path d="M428,522.7l0.4,3.3l-3.3,0h-11.6l0.3-3.2c0.2-2.2,0.5-14.8,0.5-16.1v-4.4l-31.6,1.1v1.7c0,3.2,0.3,16.2,0.3,17.7l0.2,3.1
				h-14.3l0.2-3.1c0.2-3,0.2-19.6,0.2-21.4v-7.7c0-1.6-0.3-18.7-0.4-20.2l-0.3-3.2h14.9l-0.4,3.3c-0.1,1.3-0.4,14.9-0.4,16.7v2.5
				l31.6-1.1v-2.9c0-1.5-0.2-13.9-0.3-15.2l-0.3-3.2h15.2l-0.5,3.3c-0.2,1.6-0.6,20-0.6,22.2v7.1C427.7,504.4,427.9,521.2,428,522.7
				z"/>
		</g>
		<g>
			<path d="M474.9,469.3c-10.3,0-19.6,3.2-26.2,9.1c-6.5,5.8-10.1,13.7-10.1,22.3c0,7.2,3,13.8,8.5,18.6c5.8,5.1,13.8,7.8,23.1,7.8
				c14.4,0,22.8-5.8,27.3-10.7c5.1-5.5,8.1-13,8.1-20C505.7,480.2,493.3,469.3,474.9,469.3z M473.8,480.4c8.9,0,18,5.1,18,16.4
				C491.7,510,481,516,471,516c-10.9,0-18.5-6.7-18.5-16.3C452.5,488.3,461.2,480.4,473.8,480.4z"/>
		</g>
		<g>
			<path d="M556.4,487.9c0-5.1-2.7-14-20.8-16.5c-5.5-0.8-12.8-1-16.2-1h-2.9v2.9c0,0.5,0,3.5,0.1,7c0.1,4.2,0.1,8.9,0.1,9.7v7.8
				c0,5.1-0.3,22-0.4,25l-0.2,3.1h14.2l-0.4-3.2c-0.1-0.6-0.2-3.7-0.2-10.3v-1.8C546,507.2,556.4,498.5,556.4,487.9z M529.9,499.6
				v-18c12.2,0.9,12.5,6.6,12.5,7.3C542.4,495.1,535.6,498.1,529.9,499.6z"/>
		</g>
		<g>
			<path d="M676.7,474.2l-1.5,3c-0.2,0.4-1,2.1-2.3,4.7c-9,18.3-19.6,39.8-21.3,42.7l-0.8,1.5h-3.5l-0.9-1.4
				c-1.6-2.7-6.9-10.3-11.6-17c-2.3-3.3-4.4-6.3-5.9-8.6c-3.7,5.7-10,15.3-14.5,22.1c-1.7,2.6-3.1,4.8-3.9,6l-0.9,1.3h-3.6l-0.8-1.7
				c-1.5-3.4-7.3-17.6-12.4-30.1c-3.6-8.7-6.9-16.9-8.3-20.3l-1.2-2.8l13-4.7l1,2.8c1.7,5,6.8,17.9,10.5,27.3c1,2.6,1.9,4.9,2.7,6.8
				c2.6-4.2,6.4-10,10.2-15.6c2.3-3.5,4.4-6.7,6.1-9.3l0.9-1.3h3.3l0.9,1.3c4,6.1,11.4,16.9,16.3,24c0,0,0,0,0,0.1
				c2-4.5,5-11.2,8-17.7c3.1-6.9,6.1-13.3,6.8-15l1.1-2.5L676.7,474.2z"/>
		</g>
		<g>
			<path d="M696.8,522.9l0.2,3.1h-14.3l0.2-3.1c0.2-3,0.3-19.6,0.3-21.4v-7.7c0-1.6-0.3-18.7-0.4-20.2l-0.3-3.2h14.9l-0.4,3.3
				c-0.1,1.1-0.4,11.1-0.4,20.2v7.7C696.4,508.5,696.7,521.3,696.8,522.9z"/>
		</g>
		<g>
			<path d="M763.8,469.8v13.1l-3.5-0.8c-1.5-0.2-12.6-0.5-20.2-0.6v8.8c0,14,0.8,31,1,32.4l0.4,3.3l-3.3,0h-12.7l0.8-3.5
				c0.3-1.7,0.4-15,0.4-33.3v-7.7c-9.3,0.1-18.8,0.4-20.5,0.6l-3.3,0.4v-12.8l3.4,0.6c2.9,0.5,22,0.8,23.7,0.8h7.3
				c2.4,0,19.8-0.3,23.1-0.8L763.8,469.8z"/>
		</g>
		<g>
			<path d="M829,522.7l0.4,3.3l-3.3,0h-11.6l0.3-3.2c0.2-2.2,0.5-14.8,0.5-16.1v-4.4l-31.6,1.1v1.7c0,3.2,0.3,16.2,0.3,17.7l0.2,3.1
				h-14.3l0.2-3.1c0.2-3,0.3-19.6,0.3-21.4v-7.7c0-1.6-0.3-18.7-0.4-20.2l-0.3-3.2h14.9l-0.4,3.3c-0.1,1.3-0.4,14.9-0.4,16.7v2.5
				l31.6-1.1v-2.9c0-1.5-0.2-13.9-0.3-15.2l-0.3-3.2h15.2l-0.5,3.3c-0.2,1.6-0.6,20-0.6,22.2v7.1C828.6,504.4,828.8,521.2,829,522.7
				z"/>
		</g>
		<g>
			<path d="M931.4,518.5c-2.8-3.7-9.6-14.1-16.1-24.1c-6.5-10-13.1-20.3-16.8-25.3l-0.9-1.2h-3.1l-0.9,1.2c-1,1.3-5.7,9.1-13.4,21.7
				c-7.1,11.6-15,24.7-17.4,28.2l-1.8,2.7l12.2,6.5l1.4-2.4c0.6-1.1,2.2-4.1,4-7.6c1.4-2.7,3.4-6.5,4.5-8.5l25.9-0.9
				c1.9,2.9,6.4,10.2,8.5,13.7c0.9,1.5,1.6,2.7,2,3.3l1.5,2.4l12.5-7L931.4,518.5z M890.1,497.8c1.6-2.8,4-7.1,5.8-10.2
				c2,3.2,4.9,7.7,6.9,11l-13.5,0.5C889.6,498.7,889.8,498.3,890.1,497.8z"/>
		</g>
		<g>
			<path d="M1012.6,517.8c-1.7-1.6-12-12.3-16.9-17.5c6.6-4.3,10-9.4,10-15.1c0-2.8-1-6.8-5.9-9.9c-3.4-2.2-8.1-3.6-14.1-4.2
				c-4.9-0.5-10.8-0.7-17.7-0.7h-3.5l0.6,3.4c0.2,1.6,0.4,15,0.4,17.7v5.8c0,0.2,0,0.8,0,1.6c0.1,18.7,0,22.8-0.1,23.6l-0.7,3.4
				h15.1l-0.5-3.3v0c0,0,0,0,0,0c-0.1-1.9-0.4-18.3-0.4-21.3v-1.1l0.9,1.1c2.6,3,21.4,24,22.4,25l1.7,1.8l11.5-7.8L1012.6,517.8z
				 M978.8,497.6v-16.5c9.4,0.5,12.8,2.9,12.8,5.1c0,3.7-3.7,7.3-10.9,10.5L978.8,497.6z"/>
		</g>
		<g>
			<path d="M1051.4,469.3c-10.3,0-19.6,3.2-26.2,9.1c-6.5,5.8-10.1,13.7-10.1,22.3c0,7.2,3,13.8,8.5,18.6c5.8,5.1,13.8,7.8,23.1,7.8
				c14.4,0,22.8-5.8,27.3-10.7c5.1-5.5,8.1-13,8.1-20C1082.1,480.2,1069.8,469.3,1051.4,469.3z M1047.4,516
				c-10.9,0-18.5-6.7-18.5-16.3c0-11.4,8.7-19.3,21.3-19.3c8.9,0,18,5.1,18,16.4C1068.2,510,1057.4,516,1047.4,516z"/>
		</g>
		<g>
			<path d="M1147.1,518.5c-2.8-3.7-9.6-14.1-16.1-24.1c-6.5-10-13.1-20.3-16.8-25.3l-0.9-1.2h-3.1l-0.9,1.2
				c-1,1.3-5.8,9.1-13.4,21.7c-7,11.6-15,24.7-17.4,28.2l-1.8,2.7l12.2,6.5l1.4-2.4c0.6-1.1,2.2-4.1,4-7.6c1.4-2.7,3.4-6.5,4.5-8.5
				l25.9-0.9c1.9,2.9,6.4,10.3,8.5,13.7c0.9,1.5,1.6,2.6,2,3.2l1.5,2.4l12.5-7L1147.1,518.5z M1105.9,497.8c1.6-2.8,4-7.1,5.8-10.2
				c2,3.2,4.9,7.7,6.9,11l-13.5,0.5C1105.3,498.7,1105.6,498.3,1105.9,497.8z"/>
		</g>
		<g>
			<path d="M1203.2,517.8c-1.7-1.6-12-12.3-16.9-17.5c6.6-4.3,10-9.4,10-15.1c0-2.8-1-6.8-5.9-9.9c-3.4-2.2-8.1-3.6-14.1-4.2
				c-4.9-0.5-10.8-0.7-17.7-0.7h-3.5l0.6,3.4c0.2,1.6,0.4,15,0.4,17.7v7.4c0.1,18.7,0,22.8-0.1,23.6l-0.7,3.4h15.1l-0.5-3.3
				c0,0,0,0,0,0v0c-0.1-1.9-0.4-18.3-0.4-21.3v-1.1l0.9,1.1c2.6,3,21.4,24,22.4,25l1.7,1.8l11.5-7.8L1203.2,517.8z M1171.3,496.7
				l-1.9,0.9v-16.5c9.4,0.5,12.8,2.9,12.8,5.1C1182.2,488.7,1180.3,492.6,1171.3,496.7z"/>
		</g>
		<g>
			<g>
				<path d="M1085,314.8l-21,22l-3.2-4.6c-2.1-2.9-44.6-64.3-50.2-73.1l-2.5-4l4.2-2.5c9-5.4,25.6-15.5,25.6-33.4
					c0-10.8-10.8-16.8-32.2-17.6v60.9c0,8.4,0.6,59.2,1,62.6l0.7,5.2l-5.3,0h-24.6l0.7-5.2c0.2-1.6,0.5-12.9,0.4-71
					c0-1.7,0-2.8,0-3.3V234c0-8.4-0.5-48.8-1-52.3l-0.9-5.4l5.4,0c1.2,0,2.6,0,4.1,0c9.4-0.1,23.5-0.2,37.3,1.8
					c13.2,1.8,23.7,5.9,31.2,12.2c7.8,6.6,11.9,15.5,11.9,25.7c0,15.8-8.8,31.1-24.9,43.4c9,12.6,35.8,47.1,40.4,52.3L1085,314.8z"
					/>
			</g>
			<g>
				<path d="M1213.5,187.3c-11.7-13.5-28.3-20.9-46.9-20.9c-11.4,0-22.2,2.5-32,7.3c-9.4,4.6-17.6,11.3-24.5,19.8
					c-13.5,16.7-20.9,39.5-20.9,64.3c0,20.3,6.2,39.1,17.4,52.8c12.3,15.1,29.6,23.1,49.8,23.1c24.7,0,45.1-10.9,58.9-31.6
					c10.5-15.8,16.8-37.2,16.8-57.4C1232,221.2,1225.6,201.4,1213.5,187.3z M1158,308.5c-24.8,0-42-22.2-42-53.9
					c0-37.1,19.8-62.9,48.1-62.9c20.4,0,40.9,16.7,40.9,54.1c0,19-5,35.2-14.5,46.7C1182,302.8,1170.5,308.5,1158,308.5z"/>
			</g>
			<g>
				<path d="M1374.6,315.2c-6.3-11.3-21-43.1-35.3-73.8c-14.1-30.2-28.6-61.5-36.6-76.6l-1.3-2.5h-5.9l-1.3,2.4
					c-2.2,4-14.7,32.6-29.2,65.8c-15.4,35.2-32.8,75.1-38.1,85.9l-1.7,3.4l22.8,17l2.3-5.4c1.4-3.3,4.9-12.8,8.7-22.9
					c3.6-9.6,8.3-22.2,10.4-27.5l57.6-2.8c3.7,7.8,14,31.1,19.3,43.2c2,4.5,3.6,8,4.4,9.9l2.4,5.4l23.4-18.2L1374.6,315.2z
					 M1317.4,255.5l-37.8,1.9c1.2-2.8,2.7-6.5,4.5-11.1c4.1-10,9.9-24.5,13.9-33.8C1303.6,224.4,1312.8,245.1,1317.4,255.5z"/>
			</g>
			<g>
				<path d="M1499.7,316.8l-21,19.9l-3-4.6c-2.1-3.2-43.2-66.8-48.8-75.9l-2.3-3.9l3.8-2.4c16.8-10.7,25.3-22.9,25.3-36.3
					c0-5-1.9-9.1-5.7-12.2c-5.3-4.4-13.9-7-25.7-7.6v65.8c0,8.9,0.6,62.2,0.9,65.6l0.6,5.2l-5.2,0h-23.1l0.7-5.3
					c0.3-2,0.6-16.2,0.3-72.7c0-2.5,0-4.2,0-4.8v-17.7c0-8.8-0.4-51.2-0.9-54.7l-0.7-5.2h5.3c15.1,0,28.1,0.7,38.7,2.2
					c26.6,3.8,41.9,17.8,41.9,38.5c0,16.8-8,31.9-23.9,44.9c8.9,13.5,35.7,52.6,40.1,58L1499.7,316.8z"/>
			</g>
		</g>
		<g>
			<g>
				<path d="M111.3,277.2c0,12.5-6.1,25.3-17.1,36.1c-11.5,11.3-27.9,20-47.4,25l-4.3,1.1l-8.2-26l4.9-1.1
					c6.5-1.5,18.9-4.9,29.1-11.3c8.8-5.6,13.3-11.8,13.3-18.4c0-8.4-4.1-13.1-19.2-22.1c-8.1-4.8-16.4-10.2-22.5-16.7
					c-6.4-7-9.5-14.6-9.5-23.3c0-26.3,31.6-49.9,62.2-57.5l4.5-1.1l6.6,26.7l-4.9,0.9c-6,1.1-16.2,4.1-24.8,9
					c-6.6,3.8-14.5,10-14.5,18.1c0,7.6,9.6,13.6,17.3,18.4c1.4,0.8,2.7,1.6,3.9,2.4c0.7,0.5,1.4,0.9,2.2,1.4
					C98.3,248.7,111.3,257.2,111.3,277.2z"/>
			</g>
			<g>
				<path d="M288.8,243.2v22.7c0,4.6,0.4,59.6,0.8,63.5l0.5,5.1h-30.7l0.4-5c0.6-7.5,1.2-47.9,1.2-52v-18.7l-82.7,3.9v10.1
					c0,10.3,0.6,52,0.8,56.9l0.2,4.8h-29.6l0.2-4.8c0.4-9.9,0.6-62.7,0.6-68.7v-24.5c0-5.1-0.6-59.9-1-64.9l-0.4-5h30.7l-0.5,5.1
					c-0.4,3.7-1,49.6-1,53.9v12.8l82.7-3.9v-13.7c0-4.3-0.4-44.6-0.8-49.3l-0.4-5H291l-0.6,5.2C289.8,176.7,288.8,237.7,288.8,243.2
					z"/>
			</g>
			<g>
				<path d="M459.6,184.7c-6.5-7.1-14.4-12.5-23.3-16.2c-8.9-3.7-18.6-5.5-28.9-5.5c-12.8,0-24.8,2.5-35.7,7.6
					c-10.5,4.8-19.7,11.8-27.4,20.7c-15.2,17.5-23.5,41.4-23.5,67.5c0,21.3,6.9,41,19.5,55.4c13.8,15.7,33,24,55.6,24
					c34.8,0,54.9-17.9,65.7-33c11.8-16.6,18.9-39.1,18.9-60.3C480.4,220.2,473.2,199.4,459.6,184.7z M397.7,312
					c-28.2,0-47.9-23.4-47.9-56.8c0-39,22.5-66.3,54.7-66.3c23.2,0,46.7,17.6,46.7,57C451.2,291.3,423.5,312,397.7,312z"/>
			</g>
			<g>
				<path d="M604.9,217.6c0-13-4.6-23.9-13.6-32.3c-8.3-7.8-20.2-13.1-35.2-15.8c-13.4-2.4-31.2-3-39.6-3H512v4.6
					c0,1.5,0.1,11.1,0.3,22.1c0.2,13.3,0.4,28.3,0.4,31.1v24.9c0,16.2-0.6,70.6-1,80.3l-0.2,4.8h29.3l-0.4-5
					c-0.3-2.9-0.4-15.1-0.4-33.6v-9.7C579.5,276.2,604.9,249.6,604.9,217.6z M575.7,221c0,23.3-18.4,34.3-35.9,39.5v-67.8
					C573.9,195.1,575.7,216.6,575.7,221z"/>
			</g>
		</g>
		<polygon class="st4" points="737.4,139.4 773.3,141 716.5,3.5 		"/>
		<g>
			<polygon class="st4" points="685.6,192 721.5,193.6 664.7,56.1 			"/>
		</g>
		<g>
			<polygon class="st4" points="825.8,192 861.7,193.6 805,56.1 			"/>
		</g>
		<g>
			<polygon class="st5" points="668.5,416.1 647.8,162.4 612.4,159.9 636.1,453.3 953.3,418.8 937.2,386.9 			"/>
			<path class="st6" d="M730.2,158c1-5,6.5-8.9,12.5-8.3c15,1.4,30,3,44.9,4.6c8.2,0.9,16.4,1.7,24.5,2.7c4.3,0.6,7.3,4.7,6.8,8.7
				c-0.6,4.3-4,7-8.6,6.6c-10.5-0.3-21.1-0.5-31.6-0.8l51.5,3.6l106.9,211.9l48.5-5.3L862.7,140l-217.9-15.1l3.1,37.5l88.7,6.1
				C732.1,166.2,729.4,161.9,730.2,158z"/>
			<path class="st6" d="M937.2,386.9L830.3,175l-51.5-3.6c-4.8-0.1-9.5-0.2-14.3-0.4c-7.2-0.2-14.4-0.5-21.6-0.8
				c-1.4-0.1-2.8-0.4-4.1-0.8c-0.8-0.3-1.5-0.6-2.2-1l-88.7-6.1l20.7,253.7L937.2,386.9z M730.7,224c1.2-0.2,2.5,0,3.8,0
				c0,0.2,0,0.3,0,0.5c11.6,0.6,23.3,0.9,34.9,1.9c3.2,0.3,6.5,2.4,9.4,4.2c1.9,1.2,3,1.8,5.2,0.6c14.6-7.6,29.8-8.1,45.7-4.1
				c15.7,4,26.8,13.7,34.5,27.1c5.3,9.2,7.9,19.6,9.3,30.3c1.2,8.8,3.1,17.4,4.7,26.1c2.1,11.1,4.2,22.1,6.2,33.2
				c1.8,10.1,0.1,12.5-9.9,14.1c-7.7,1.2-15.5,2.5-23.3,3.1c-9.1,0.7-11.4-1.7-12.8-9.2c-3.9-21.9-7.9-43.9-12.2-65.7
				c-0.9-4.5-2.2-9.3-4.8-13c-5.6-7.9-13.9-7.9-22.6-6c-6.3,1.4-9.1,7.4-8.9,12.5c0.2,4,1.4,8,2,12c1.6,9.1,3.1,18.2,4.7,27.3
				c0.6,3.2,1.4,6.4,2,9.7c1.7,8.7,3.2,17.4,4.9,26.1c1.6,8.5-1.3,13.1-9.9,14.6c-9.1,1.5-18.3,2.6-27.4,3.8c-2.4,0.3-4.8,0.6-7.1,1
				c-7.5,1.2-13.1-2.5-14.5-9.8c-2.5-13.4-4.8-26.9-7.3-40.3c-1.8-9.6-3.7-19.1-5.5-28.7c-3.7-19.9-7.2-39.8-10.9-59.7
				C719.5,227.7,723.4,225.5,730.7,224z"/>
		</g>
	</g>
</g>
<rect x="704.2" y="212" class="st7" width="188" height="168"/>
<text transform="matrix(0.993 -0.1179 0.1179 0.993 734.7637 368.7751)" class="st8 st9 st10">s</text>
<path class="st2" d="M611.2,1982.5h-6.9c-2.5,0-4.6-2-4.6-4.6v-6.9c0-2.5,2-4.6,4.6-4.6h6.9c2.5,0,4.6,2,4.6,4.6v6.9
	C615.7,1980.4,613.7,1982.5,611.2,1982.5z"/>
<g>
	<polygon class="st4" points="606,1971.4 607.2,1971.4 605.3,1967 	"/>
	<g>
		<polygon class="st4" points="604.3,1973 605.5,1973.1 603.7,1968.7 		"/>
	</g>
	<g>
		<polygon class="st4" points="608.8,1973 610,1973.1 608.2,1968.7 		"/>
	</g>
	<g>
		<polygon class="st5" points="603.8,1980.2 603.1,1972.1 602,1972 602.7,1981.4 612.9,1980.3 612.4,1979.3 		"/>
		<path class="st6" d="M605.8,1971.9c0-0.2,0.2-0.3,0.4-0.3c0.5,0,1,0.1,1.4,0.1c0.3,0,0.5,0.1,0.8,0.1c0.1,0,0.2,0.2,0.2,0.3
			c0,0.1-0.1,0.2-0.3,0.2c-0.3,0-0.7,0-1,0l1.7,0.1l3.4,6.8l1.6-0.2l-4-7.8l-7-0.5l0.1,1.2l2.9,0.2
			C605.8,1972.2,605.7,1972.1,605.8,1971.9z"/>
		<path class="st6" d="M612.4,1979.3l-3.4-6.8l-1.7-0.1c-0.2,0-0.3,0-0.5,0c-0.2,0-0.5,0-0.7,0c0,0-0.1,0-0.1,0c0,0,0,0-0.1,0
			l-2.9-0.2l0.7,8.2L612.4,1979.3z M605.8,1974.1c0,0,0.1,0,0.1,0c0,0,0,0,0,0c0.4,0,0.7,0,1.1,0.1c0.1,0,0.2,0.1,0.3,0.1
			c0.1,0,0.1,0.1,0.2,0c0.5-0.2,1-0.3,1.5-0.1c0.5,0.1,0.9,0.4,1.1,0.9c0.2,0.3,0.3,0.6,0.3,1c0,0.3,0.1,0.6,0.2,0.8
			c0.1,0.4,0.1,0.7,0.2,1.1c0.1,0.3,0,0.4-0.3,0.5c-0.2,0-0.5,0.1-0.7,0.1c-0.3,0-0.4-0.1-0.4-0.3c-0.1-0.7-0.3-1.4-0.4-2.1
			c0-0.1-0.1-0.3-0.2-0.4c-0.2-0.3-0.4-0.3-0.7-0.2c-0.2,0-0.3,0.2-0.3,0.4c0,0.1,0,0.3,0.1,0.4c0.1,0.3,0.1,0.6,0.1,0.9
			c0,0.1,0,0.2,0.1,0.3c0.1,0.3,0.1,0.6,0.2,0.8c0.1,0.3,0,0.4-0.3,0.5c-0.3,0-0.6,0.1-0.9,0.1c-0.1,0-0.2,0-0.2,0
			c-0.2,0-0.4-0.1-0.5-0.3c-0.1-0.4-0.2-0.9-0.2-1.3c-0.1-0.3-0.1-0.6-0.2-0.9c-0.1-0.6-0.2-1.3-0.3-1.9
			C605.4,1974.2,605.5,1974.1,605.8,1974.1z"/>
	</g>
	<rect x="604.9" y="1973.7" class="st6" width="6" height="5.4"/>
	<text transform="matrix(0.993 -0.1179 0.1179 0.993 605.8943 1978.7104)" class="st2 st9" style="font-size:9.6452px;">s</text>
</g>
</svg>
